<?xml version="1.0" encoding="utf-8"?>
<!-- Generator: Adobe Illustrator 23.1.0, SVG Export Plug-In . SVG Version: 6.00 Build 0)  -->
<svg version="1.1" id="Layer_1" xmlns="http://www.w3.org/2000/svg" xmlns:xlink="http://www.w3.org/1999/xlink" x="0px" y="0px"
	 viewBox="0 0 24 24" style="enable-background:new 0 0 24 24;" xml:space="preserve">
<style type="text/css">
	.st0{clip-path:url(#SVGID_2_);fill:#FFFFFF;}
	.st1{clip-path:url(#SVGID_4_);fill:#AE9C79;}
	.st2{clip-path:url(#SVGID_6_);fill:#FFFFFF;}
	.st3{clip-path:url(#SVGID_8_);fill:#AE9C79;}
</style>
<g>
	<g>
		<defs>
			<rect id="SVGID_1_" x="3" y="0.6" width="18.1" height="22.7"/>
		</defs>
		<clipPath id="SVGID_2_">
			<use xlink:href="#SVGID_1_"  style="overflow:visible;"/>
		</clipPath>
		<path class="st0" d="M18.7,22.7H5.3c-0.9,0-1.7-0.8-1.7-1.7V3.1c0-1,0.8-1.7,1.7-1.7h13.3c1,0,1.7,0.8,1.7,1.7v17.9
			C20.4,21.9,19.6,22.7,18.7,22.7"/>
	</g>
	<g>
		<defs>
			<rect id="SVGID_3_" x="3" y="0.6" width="18.1" height="22.7"/>
		</defs>
		<clipPath id="SVGID_4_">
			<use xlink:href="#SVGID_3_"  style="overflow:visible;"/>
		</clipPath>
		<path class="st1" d="M5.3,2C4.8,2,4.3,2.5,4.3,3.1v17.9c0,0.6,0.5,1.1,1.1,1.1h13.3c0.6,0,1.1-0.5,1.1-1.1V3.1
			c0-0.6-0.5-1.1-1.1-1.1H5.3z M18.7,23.4H5.3C4,23.4,3,22.3,3,20.9V3.1C3,1.7,4,0.6,5.3,0.6h13.3C20,0.6,21,1.7,21,3.1v17.9
			C21,22.3,20,23.4,18.7,23.4"/>
	</g>
	<g>
		<defs>
			<rect id="SVGID_5_" x="3" y="0.6" width="18.1" height="22.7"/>
		</defs>
		<clipPath id="SVGID_6_">
			<use xlink:href="#SVGID_5_"  style="overflow:visible;"/>
		</clipPath>
		<path class="st2" d="M12,10.8c-1,0-1.8-0.8-1.8-1.8S11,7.3,12,7.3s1.8,0.8,1.8,1.8S13,10.8,12,10.8 M12,4.8C9.4,4.8,7.3,7,7.3,9.6
			c0,2.9,4.7,9.6,4.7,9.6s4.7-6.8,4.7-9.6C16.7,7,14.6,4.8,12,4.8"/>
	</g>
	<g>
		<defs>
			<rect id="SVGID_7_" x="3" y="0.6" width="18.1" height="22.7"/>
		</defs>
		<clipPath id="SVGID_8_">
			<use xlink:href="#SVGID_7_"  style="overflow:visible;"/>
		</clipPath>
		<path class="st3" d="M12,7.9c-0.6,0-1.1,0.5-1.1,1.1s0.5,1.1,1.1,1.1c0.6,0,1.1-0.5,1.1-1.1C13.1,8.4,12.6,7.9,12,7.9 M12,11.5
			c-1.3,0-2.4-1.1-2.4-2.5s1.1-2.5,2.4-2.5c1.3,0,2.4,1.1,2.4,2.5C14.4,10.4,13.3,11.5,12,11.5 M12,5.5c-2.2,0-4,1.8-4,4.1
			c0,1.9,2.6,6.2,4,8.4c1.5-2.3,4-6.5,4-8.4C16,7.3,14.2,5.5,12,5.5 M12,19.8c-0.2,0-0.4-0.1-0.5-0.3c-0.5-0.7-4.8-7-4.8-10
			c0-3,2.4-5.4,5.4-5.4s5.4,2.4,5.4,5.4c0,2.9-4.3,9.3-4.8,10C12.4,19.7,12.2,19.8,12,19.8L12,19.8z"/>
	</g>
</g>
</svg>
