<?xml version="1.0" encoding="utf-8"?>
<!-- Generator: Adobe Illustrator 23.1.0, SVG Export Plug-In . SVG Version: 6.00 Build 0)  -->
<svg version="1.1" id="Layer_1" xmlns="http://www.w3.org/2000/svg" xmlns:xlink="http://www.w3.org/1999/xlink" x="0px" y="0px"
	 viewBox="0 0 10 10" style="enable-background:new 0 0 10 10;" xml:space="preserve">
<style type="text/css">
	.st0{clip-path:url(#SVGID_2_);fill:#353E51;}
</style>
<g>
	<g>
		<defs>
			<rect id="SVGID_1_" x="0" y="1.3" width="10" height="7.3"/>
		</defs>
		<clipPath id="SVGID_2_">
			<use xlink:href="#SVGID_1_"  style="overflow:visible;"/>
		</clipPath>
		<path class="st0" d="M4.2,8C4.2,8,4.1,8,4.2,8C3.9,7.7,3.7,7.5,3.5,7.3c0,0-0.1-0.1-0.1-0.1c-0.2,0-0.4,0-0.6,0
			C1.7,7,1.1,5.9,1.5,4.9c0.3-0.8,1.1-1.2,1.9-1.1c0.4,0.1,0.7,0.2,0.9,0.5c0.3,0.3,0.7,0.7,1,1c0.1,0.1,0.2,0.1,0.3,0.1
			c0.1,0,0.2-0.1,0.3-0.2c0-0.1,0-0.2-0.1-0.3c-0.3-0.3-0.7-0.7-1-1C4.1,3.2,3.3,3,2.4,3.3C1.2,3.6,0.5,4.9,0.8,6.1C1,7.2,2,8,3.1,8
			C3.5,8,3.8,8,4.2,8C4.1,8,4.1,8,4.2,8 M4.4,2.7C4.4,2.7,4.4,2.7,4.4,2.7C4.6,2.8,4.8,2.9,5,3.1c0,0,0,0,0.1,0
			c0.5-0.3,1.1-0.4,1.6-0.3c0.6,0.1,1,0.4,1.4,0.9c0.4,0.5,0.6,1.1,0.4,1.8C8.5,5.8,8.3,6.2,8,6.5C7.5,7.1,6.8,7.4,6,7.3
			C5.5,7.2,5.1,7,4.7,6.7C4.2,6.2,3.8,5.7,3.3,5.3C3.3,5.2,3.2,5.2,3.1,5.2C3,5.1,2.8,5.2,2.7,5.3C2.7,5.5,2.7,5.6,2.8,5.7
			c0.5,0.5,1,1,1.5,1.5c0.1,0.1,0.2,0.2,0.3,0.2C5,7.7,5.4,7.9,5.9,8c0.4,0,0.7,0,1.1,0c0.7-0.2,1.2-0.5,1.7-1C9,6.5,9.2,6,9.2,5.4
			c0-0.3,0-0.6,0-1c-0.1-0.5-0.3-1-0.7-1.4C7.9,2.3,7,2,6,2c-0.4,0-0.8,0.1-1.1,0.3C4.8,2.5,4.6,2.6,4.4,2.7 M10,4.8v0.3
			c0,0,0,0,0,0.1c0,0.1,0,0.3-0.1,0.4C9.8,6.1,9.7,6.5,9.4,6.9C9.1,7.5,8.6,8,7.9,8.3C7.5,8.5,7.2,8.6,6.7,8.6c-0.1,0-0.2,0-0.3,0H3
			c0,0,0,0-0.1,0c-0.4,0-0.7-0.1-1-0.2C1.2,8.1,0.7,7.6,0.3,6.9C0.2,6.6,0.1,6.3,0,6c0-0.1,0-0.2,0-0.2V5.4c0,0,0,0,0-0.1
			C0,5,0.1,4.7,0.2,4.4C0.5,3.7,1,3.1,1.8,2.7C2.1,2.6,2.6,2.4,3,2.4c0.2,0,0.4,0,0.6,0c0,0,0,0,0.1,0c0.3-0.3,0.6-0.5,1-0.7
			c0.4-0.2,0.8-0.3,1.2-0.3c0.1,0,0.2,0,0.3,0h0.3c0,0,0,0,0.1,0c0.1,0,0.3,0,0.4,0.1c0.5,0.1,0.9,0.2,1.3,0.5
			c0.6,0.4,1.1,0.9,1.4,1.5C9.8,3.8,9.9,4.1,10,4.5C10,4.7,10,4.7,10,4.8"/>
	</g>
</g>
</svg>
