<?xml version="1.0" encoding="utf-8"?>
<!-- Generator: Adobe Illustrator 24.1.1, SVG Export Plug-In . SVG Version: 6.00 Build 0)  -->
<svg version="1.1" id="Layer_1" xmlns="http://www.w3.org/2000/svg" xmlns:xlink="http://www.w3.org/1999/xlink" x="0px" y="0px"
	 viewBox="0 0 425.7 96.5" style="enable-background:new 0 0 425.7 96.5;" xml:space="preserve">
<style type="text/css">
	.st0{fill:none;stroke:#AE9C79;}
	.st1{fill:#AE9C79;}
	.st2{fill:none;stroke:#AE9C79;stroke-width:0.992;}
</style>
<g>
	<line class="st0" x1="30.5" y1="67.6" x2="69.1" y2="29.1"/>
	<g>
		<path class="st1" d="M25.7,43.5v-21h5.5c3.6,0,6.3,0.9,8.1,2.6s2.8,4.3,2.8,7.6c0,1.6-0.3,3.1-0.8,4.4s-1.3,2.5-2.2,3.4
			s-2.1,1.7-3.5,2.2s-2.9,0.8-4.7,0.8C30.9,43.5,25.7,43.5,25.7,43.5z M27.7,24.3v17.5h3.2c1.4,0,2.7-0.2,3.9-0.6s2.1-1,2.9-1.7
			c0.8-0.8,1.4-1.7,1.8-2.8s0.6-2.4,0.6-3.8c0-5.7-3-8.5-9-8.5C31.1,24.3,27.7,24.3,27.7,24.3z"/>
	</g>
	<g>
		<path class="st1" d="M69.2,72.2c-1.6,0.8-3.5,1.1-5.5,1.1c-1.5,0-2.8-0.3-4-0.8s-2.2-1.3-3.1-2.2s-1.5-2-2-3.3s-0.7-2.7-0.7-4.2
			c0-1.6,0.3-3.1,0.7-4.5c0.5-1.4,1.2-2.6,2.1-3.6s2-1.8,3.3-2.4s2.8-0.9,4.4-0.9c1.8,0,3.4,0.3,4.8,0.8v2.1
			c-1.5-0.8-3.1-1.1-4.8-1.1c-1.4,0-2.6,0.2-3.6,0.7s-1.9,1.1-2.7,2c-0.7,0.8-1.3,1.8-1.7,3s-0.6,2.4-0.6,3.7c0,1.2,0.2,2.3,0.5,3.4
			s0.8,2,1.5,2.8s1.5,1.4,2.5,1.9s2.2,0.7,3.5,0.7c2,0,3.8-0.4,5.3-1.3L69.2,72.2L69.2,72.2z"/>
	</g>
	<g>
		<circle class="st2" cx="48.3" cy="48.2" r="47.8"/>
	</g>
</g>
<g>
	<path class="st1" d="M115.6,61.5v-26h8.8c2.1,0,3.9,0.3,5.4,1s2.8,1.6,3.9,2.8c1,1.2,1.8,2.5,2.3,4.1s0.8,3.3,0.8,5
		c0,2-0.3,3.8-0.9,5.4c-0.6,1.6-1.4,3-2.5,4.1s-2.4,2-3.9,2.6s-3.2,0.9-5.1,0.9h-8.8L115.6,61.5L115.6,61.5z M134.3,48.5
		c0-1.6-0.2-3-0.7-4.3c-0.4-1.3-1.1-2.4-1.9-3.4s-1.9-1.7-3.1-2.2c-1.2-0.5-2.6-0.8-4.2-0.8h-6.3v21.5h6.3c1.6,0,3-0.3,4.3-0.8
		c1.2-0.5,2.3-1.3,3.1-2.3s1.5-2.1,1.9-3.4C134.1,51.5,134.3,50,134.3,48.5z"/>
	<path class="st1" d="M146.1,61.9c-0.9,0-1.7-0.2-2.5-0.5s-1.4-0.7-2-1.3c-0.6-0.5-1-1.2-1.3-1.9s-0.5-1.5-0.5-2.3s0.2-1.6,0.6-2.3
		c0.4-0.7,0.9-1.3,1.6-1.8c0.7-0.5,1.5-0.9,2.5-1.2s2.1-0.4,3.2-0.4c1,0,2,0.1,3,0.3s1.9,0.4,2.7,0.7v-1.7c0-1.7-0.5-3-1.4-4
		s-2.3-1.5-4-1.5c-1,0-2,0.2-3,0.6c-1,0.4-2.1,1-3.1,1.7l-0.9-1.6c2.5-1.7,4.9-2.5,7.2-2.5c2.4,0,4.3,0.7,5.6,2
		c1.4,1.3,2.1,3.2,2.1,5.6v8.6c0,0.7,0.3,1,0.9,1v2.2c-0.4,0.1-0.7,0.1-1,0.1c-0.6,0-1.1-0.2-1.5-0.5s-0.5-0.8-0.6-1.3l-0.1-1.5
		c-0.9,1.1-2,2-3.3,2.6S147.6,61.9,146.1,61.9z M146.7,60c1.3,0,2.5-0.2,3.6-0.7s1.9-1.1,2.5-1.9c0.2-0.2,0.4-0.5,0.5-0.7
		c0.1-0.3,0.2-0.5,0.2-0.7v-3.1c-0.8-0.3-1.7-0.6-2.6-0.7c-0.9-0.2-1.8-0.3-2.7-0.3c-1.8,0-3.2,0.4-4.3,1.1s-1.6,1.7-1.6,2.9
		c0,0.6,0.1,1.1,0.3,1.6s0.5,1,1,1.3c0.4,0.4,0.9,0.7,1.4,0.9S146,60,146.7,60z"/>
	<path class="st1" d="M170.8,44.6c-1.7,0-3.1,0.5-4.4,1.4c-1.2,0.9-2.1,2.1-2.6,3.6v11.9h-2.5V42.4h2.3V47c0.7-1.5,1.7-2.6,2.9-3.4
		c1.2-0.8,2.5-1.2,3.8-1.2c0.2,0,0.4,0,0.5,0V44.6z"/>
	<path class="st1" d="M175.2,67.4c0.2,0,0.4,0,0.6,0.1c0.2,0,0.4,0,0.5,0c0.4,0,0.8-0.1,1-0.2c0.3-0.1,0.5-0.4,0.8-0.8
		s0.5-1,0.8-1.8c0.3-0.8,0.7-1.8,1.3-3.1l-8.3-19.1h2.6l7.1,16.8l6.6-16.8h2.4l-9.9,24.6c-0.3,0.7-0.7,1.3-1.3,1.8s-1.5,0.8-2.5,0.8
		c-0.2,0-0.5,0-0.7,0s-0.5,0-0.8-0.1v-2.2C175.4,67.4,175.2,67.4,175.2,67.4z"/>
	<path class="st1" d="M194,34.8h2.5v22.4c0,0.7,0.2,1.3,0.6,1.7c0.4,0.4,0.9,0.6,1.6,0.6c0.3,0,0.6,0,1-0.1s0.7-0.2,1-0.3l0.4,2
		c-0.5,0.2-1,0.4-1.7,0.5s-1.3,0.2-1.7,0.2c-1.1,0-2.1-0.3-2.7-1c-0.7-0.6-1-1.6-1-2.7L194,34.8L194,34.8z"/>
	<path class="st1" d="M210.9,48.3c0-1.6,0.3-3.1,0.8-4.7c0.5-1.6,1.3-2.9,2.4-4.2c1-1.2,2.3-2.2,3.9-3s3.3-1.2,5.2-1.2
		c2.3,0,4.3,0.5,6,1.6c1.6,1.1,2.9,2.4,3.6,4.1l-2,1.2c-0.4-0.9-0.9-1.6-1.5-2.2c-0.6-0.6-1.2-1.1-1.9-1.4c-0.7-0.4-1.4-0.6-2.1-0.8
		s-1.5-0.2-2.2-0.2c-1.6,0-2.9,0.3-4.1,1c-1.2,0.6-2.2,1.5-3,2.5s-1.4,2.2-1.8,3.5c-0.4,1.3-0.6,2.6-0.6,3.9c0,1.4,0.3,2.8,0.8,4.1
		s1.2,2.5,2.1,3.5c0.9,1,1.9,1.8,3.1,2.4c1.2,0.6,2.5,0.9,3.9,0.9c0.7,0,1.5-0.1,2.3-0.3s1.5-0.5,2.2-0.9s1.4-0.9,2-1.5
		s1.1-1.3,1.5-2.2l2.1,1.1c-0.4,1-1,1.8-1.8,2.6c-0.8,0.7-1.6,1.4-2.5,1.9s-1.9,0.9-2.9,1.2s-2.1,0.4-3.1,0.4
		c-1.8,0-3.4-0.4-4.9-1.2s-2.8-1.8-3.8-3.1c-1.1-1.3-1.9-2.7-2.5-4.3C211.2,51.6,210.9,50,210.9,48.3z"/>
	<path class="st1" d="M253.3,61.5h-2.5V50.9c0-2.2-0.4-3.8-1.1-4.9c-0.7-1.1-1.8-1.6-3.3-1.6c-0.7,0-1.4,0.1-2.1,0.4
		c-0.7,0.3-1.3,0.7-2,1.2c-0.6,0.5-1.1,1.1-1.6,1.7c-0.5,0.7-0.8,1.4-1,2.2v11.7h-2.5V34.8h2.5v12c0.8-1.4,1.8-2.6,3.2-3.4
		c1.3-0.8,2.8-1.2,4.4-1.2c1.1,0,2,0.2,2.8,0.6s1.4,1,1.9,1.7s0.8,1.6,1.1,2.6c0.2,1,0.3,2.1,0.3,3.4L253.3,61.5L253.3,61.5z"/>
	<path class="st1" d="M263.4,61.9c-0.9,0-1.7-0.2-2.5-0.5s-1.4-0.7-2-1.3c-0.6-0.5-1-1.2-1.3-1.9s-0.5-1.5-0.5-2.3s0.2-1.6,0.6-2.3
		s0.9-1.3,1.6-1.8s1.5-0.9,2.5-1.2s2.1-0.4,3.2-0.4c1,0,2,0.1,3,0.3s1.9,0.4,2.7,0.7v-1.7c0-1.7-0.5-3-1.4-4s-2.3-1.5-4-1.5
		c-1,0-2,0.2-3,0.6c-1,0.4-2.1,1-3.1,1.7l-0.9-1.6c2.5-1.7,4.9-2.5,7.2-2.5c2.4,0,4.3,0.7,5.6,2c1.4,1.3,2.1,3.2,2.1,5.6v8.6
		c0,0.7,0.3,1,0.9,1v2.2c-0.4,0.1-0.7,0.1-1,0.1c-0.6,0-1.1-0.2-1.5-0.5s-0.5-0.8-0.6-1.3l-0.1-1.5c-0.9,1.1-2,2-3.3,2.6
		C266.4,61.6,264.9,61.9,263.4,61.9z M264,60c1.3,0,2.5-0.2,3.6-0.7s1.9-1.1,2.5-1.9c0.2-0.2,0.4-0.5,0.5-0.7
		c0.1-0.3,0.2-0.5,0.2-0.7v-3.1c-0.8-0.3-1.7-0.6-2.6-0.7c-0.9-0.2-1.8-0.3-2.7-0.3c-1.8,0-3.2,0.4-4.3,1.1s-1.6,1.7-1.6,2.9
		c0,0.6,0.1,1.1,0.3,1.6c0.2,0.5,0.5,1,1,1.3c0.4,0.4,0.9,0.7,1.4,0.9S263.3,60,264,60z"/>
	<path class="st1" d="M306.9,61.5h-2.5V50.9c0-2.2-0.4-3.9-1.1-4.9s-1.8-1.6-3.2-1.6c-0.7,0-1.4,0.1-2.1,0.4
		c-0.6,0.3-1.2,0.6-1.8,1.1c-0.5,0.5-1,1.1-1.4,1.7c-0.4,0.7-0.7,1.4-1,2.2v11.6h-2.5V50.9c0-2.3-0.3-3.9-1-4.9s-1.7-1.5-3.1-1.5
		s-2.7,0.5-3.8,1.5c-1.1,1-1.9,2.3-2.4,4v11.7h-2.5V42.4h2.3v4.3c0.8-1.5,1.8-2.6,3.1-3.4c1.3-0.8,2.7-1.2,4.2-1.2
		c1.6,0,2.9,0.5,3.9,1.4s1.6,2.1,1.8,3.6c1.8-3.3,4.2-4.9,7.4-4.9c1.1,0,2,0.2,2.7,0.6s1.3,0.9,1.8,1.7c0.5,0.7,0.8,1.6,1,2.6
		s0.3,2.1,0.3,3.4L306.9,61.5L306.9,61.5z"/>
	<path class="st1" d="M321.5,61.9c-1.5,0-2.9-0.4-4.2-1.1c-1.3-0.8-2.2-1.7-2.9-2.9v3.7h-2.2V34.8h2.5v11.6c0.9-1.3,1.9-2.3,3.1-3.1
		s2.6-1.2,4.2-1.2c1.3,0,2.5,0.3,3.6,0.8c1.1,0.6,2,1.3,2.7,2.3c0.7,0.9,1.3,2,1.7,3.2c0.4,1.2,0.6,2.4,0.6,3.6
		c0,1.3-0.2,2.6-0.7,3.8s-1.1,2.2-1.9,3.1c-0.8,0.9-1.8,1.6-2.9,2.1C324,61.6,322.8,61.9,321.5,61.9z M321,59.7c1,0,2-0.2,2.9-0.6
		c0.9-0.4,1.6-1,2.2-1.7s1.1-1.5,1.5-2.5c0.4-0.9,0.5-1.9,0.5-2.8c0-1-0.2-2-0.5-2.9s-0.8-1.8-1.4-2.5s-1.3-1.3-2.2-1.7
		c-0.8-0.4-1.8-0.6-2.8-0.6c-0.8,0-1.5,0.1-2.1,0.4c-0.7,0.3-1.3,0.6-1.8,1c-0.6,0.4-1.1,0.9-1.5,1.5s-0.8,1.2-1.1,1.8V55
		c0.1,0.7,0.4,1.3,0.8,1.8c0.4,0.6,0.9,1.1,1.5,1.5s1.2,0.7,1.9,1C319.7,59.6,320.3,59.7,321,59.7z"/>
	<path class="st1" d="M343,61.9c-1.4,0-2.7-0.3-3.8-0.8c-1.2-0.5-2.2-1.2-3-2.2s-1.5-2-2-3.2s-0.7-2.5-0.7-3.8s0.2-2.6,0.7-3.8
		s1.1-2.2,2-3.1c0.8-0.9,1.8-1.6,3-2.1s2.4-0.8,3.8-0.8s2.7,0.3,3.8,0.8c1.2,0.5,2.2,1.2,3,2.1c0.8,0.9,1.5,1.9,1.9,3.1
		s0.7,2.4,0.7,3.7c0,0.2,0,0.4,0,0.6c0,0.2,0,0.3,0,0.4h-16.3c0.1,1,0.3,2,0.7,2.8c0.4,0.9,0.9,1.6,1.6,2.3c0.6,0.6,1.4,1.1,2.2,1.5
		c0.8,0.4,1.7,0.5,2.6,0.5c0.6,0,1.2-0.1,1.8-0.3c0.6-0.2,1.2-0.4,1.7-0.7s1-0.7,1.4-1.1c0.4-0.4,0.7-0.9,1-1.4l2.2,0.6
		c-0.3,0.7-0.7,1.3-1.2,1.9c-0.5,0.6-1.2,1.1-1.9,1.5c-0.7,0.4-1.5,0.8-2.3,1C344.9,61.8,344,61.9,343,61.9z M350.1,51
		c-0.1-1-0.3-2-0.7-2.8c-0.4-0.8-0.9-1.6-1.5-2.2c-0.6-0.6-1.3-1.1-2.2-1.4c-0.8-0.3-1.7-0.5-2.6-0.5s-1.8,0.2-2.6,0.5
		c-0.8,0.3-1.6,0.8-2.2,1.4c-0.6,0.6-1.1,1.3-1.5,2.2s-0.6,1.8-0.7,2.8H350.1z"/>
	<path class="st1" d="M365.8,44.6c-1.7,0-3.1,0.5-4.4,1.4c-1.2,0.9-2.1,2.1-2.6,3.6v11.9h-2.5V42.4h2.3V47c0.7-1.5,1.7-2.6,2.9-3.4
		c1.2-0.8,2.5-1.2,3.8-1.2c0.2,0,0.4,0,0.5,0L365.8,44.6L365.8,44.6z"/>
	<path class="st1" d="M369.3,34.8h2.5v22.4c0,0.7,0.2,1.3,0.6,1.7s0.9,0.6,1.6,0.6c0.3,0,0.6,0,1-0.1s0.7-0.2,1-0.3l0.4,2
		c-0.5,0.2-1,0.4-1.7,0.5s-1.3,0.2-1.7,0.2c-1.1,0-2.1-0.3-2.7-1c-0.7-0.6-1-1.6-1-2.7L369.3,34.8L369.3,34.8z"/>
	<path class="st1" d="M383.9,61.9c-0.9,0-1.7-0.2-2.5-0.5s-1.4-0.7-2-1.3c-0.6-0.5-1-1.2-1.3-1.9s-0.5-1.5-0.5-2.3s0.2-1.6,0.6-2.3
		s0.9-1.3,1.6-1.8s1.5-0.9,2.5-1.2s2.1-0.4,3.2-0.4c1,0,2,0.1,3,0.3s1.9,0.4,2.7,0.7v-1.7c0-1.7-0.5-3-1.4-4s-2.3-1.5-4-1.5
		c-1,0-2,0.2-3,0.6c-1,0.4-2.1,1-3.1,1.7l-0.9-1.6c2.5-1.7,4.9-2.5,7.2-2.5c2.4,0,4.3,0.7,5.6,2c1.4,1.3,2.1,3.2,2.1,5.6v8.6
		c0,0.7,0.3,1,0.9,1v2.2c-0.4,0.1-0.7,0.1-1,0.1c-0.6,0-1.1-0.2-1.5-0.5s-0.5-0.8-0.6-1.3l-0.1-1.5c-0.9,1.1-2,2-3.3,2.6
		C386.9,61.6,385.5,61.9,383.9,61.9z M384.5,60c1.3,0,2.5-0.2,3.6-0.7s1.9-1.1,2.5-1.9c0.2-0.2,0.4-0.5,0.5-0.7
		c0.1-0.3,0.2-0.5,0.2-0.7v-3.1c-0.8-0.3-1.7-0.6-2.6-0.7c-0.9-0.2-1.8-0.3-2.7-0.3c-1.8,0-3.2,0.4-4.3,1.1s-1.6,1.7-1.6,2.9
		c0,0.6,0.1,1.1,0.3,1.6c0.2,0.5,0.5,1,1,1.3c0.4,0.4,0.9,0.7,1.4,0.9S383.9,60,384.5,60z"/>
	<path class="st1" d="M399.1,38.5v-3.7h2.5v3.7H399.1z M399.1,61.5V42.4h2.5v19.1H399.1z"/>
	<path class="st1" d="M423.1,61.5h-2.5V50.9c0-2.3-0.3-3.9-1-4.9s-1.7-1.5-3.1-1.5c-0.7,0-1.5,0.1-2.2,0.4c-0.7,0.3-1.4,0.6-2,1.1
		s-1.2,1.1-1.7,1.7c-0.5,0.7-0.8,1.4-1.1,2.2v11.7H407V42.4h2.3v4.3c0.8-1.4,1.9-2.5,3.4-3.4s3-1.3,4.7-1.3c1,0,1.9,0.2,2.7,0.6
		s1.3,0.9,1.8,1.6c0.4,0.7,0.8,1.6,1,2.6s0.3,2.2,0.3,3.4L423.1,61.5L423.1,61.5z"/>
</g>
</svg>
