<?xml version="1.0" encoding="utf-8"?>
<!-- Generator: Adobe Illustrator 24.1.1, SVG Export Plug-In . SVG Version: 6.00 Build 0)  -->
<svg version="1.1" id="Layer_1" xmlns="http://www.w3.org/2000/svg" xmlns:xlink="http://www.w3.org/1999/xlink" x="0px" y="0px"
	 viewBox="0 0 100 100" style="enable-background:new 0 0 100 100;" xml:space="preserve">
<style type="text/css">
	.st0{fill:none;stroke:#FFFFFF;stroke-width:3;stroke-miterlimit:10;}
	.st1{fill:#FFFFFF;}
</style>
<path class="st0" d="M50,2.2C23.6,2.2,2.2,23.6,2.2,50S23.6,97.8,50,97.8S97.8,76.4,97.8,50S76.4,2.2,50,2.2z"/>
<g>
	<path class="st1" d="M41.4,24.5c-2.2-2.1-5.4-3.2-9.5-3.2h-7.5v25h7.2c1.9,0,3.6-0.3,5.4-0.9c1.6-0.6,3.1-1.5,4.2-2.7
		c1.1-1.1,2.1-2.6,2.7-4.1c0.6-1.6,0.9-3.4,0.9-5.1C44.8,29.7,43.6,26.6,41.4,24.5z M38.3,36.8c-0.3,0.8-0.7,1.4-1.3,2
		c-0.7,0.6-1.4,1-2.2,1.3c-1,0.3-2.1,0.5-3.3,0.5h-1.2V27.2h1.4c4.9,0,7,1.9,7,6.5C38.8,34.9,38.6,35.9,38.3,36.8z"/>
	<polygon class="st1" points="70.1,28.1 29.4,68.7 32.9,72.2 73.6,31.6 	"/>
	<path class="st1" d="M75.6,72l-2.9,1.7c-1.1,0.7-2.6,1-4.3,1c-1.1,0-2-0.2-2.6-0.5c-0.8-0.4-1.4-0.8-1.9-1.4
		c-0.5-0.6-0.9-1.2-1.1-2c-0.3-1.1-0.4-2-0.4-2.9c0-1,0.2-2.1,0.5-3.1c0.3-0.9,0.7-1.7,1.3-2.3c0.6-0.6,1.2-1.1,2.1-1.5
		c0.6-0.3,1.5-0.5,2.7-0.5c1.5,0,2.8,0.3,3.9,0.9l2.9,1.6v-6.8l-1.3-0.5c-1.7-0.6-3.5-0.9-5.5-0.9c-1.9,0-3.7,0.4-5.2,1.1
		c-1.5,0.7-2.9,1.7-4,2.9c-1.1,1.2-1.9,2.6-2.5,4.4c-0.5,1.9-0.8,3.5-0.8,5.1c0,1.9,0.3,3.5,0.8,4.9c0.7,1.7,1.4,3,2.5,4
		c1.3,1.3,2.5,2.1,3.7,2.6c1.5,0.6,3.1,1,4.8,1c2.5,0,4.6-0.4,6.4-1.3l1.2-0.6L75.6,72z"/>
</g>
</svg>
