<?xml version="1.0" encoding="utf-8"?>
<!-- Generator: Adobe Illustrator 24.1.1, SVG Export Plug-In . SVG Version: 6.00 Build 0)  -->
<svg version="1.1" id="Layer_1" xmlns="http://www.w3.org/2000/svg" xmlns:xlink="http://www.w3.org/1999/xlink" x="0px" y="0px"
	 viewBox="0 0 25 25" style="enable-background:new 0 0 25 25;" xml:space="preserve">
<style type="text/css">
	.st0{fill-rule:evenodd;clip-rule:evenodd;fill:#FFFFFF;}
</style>
<g>
	<path class="st0" d="M12,22.4v-9.1c0.2,0,0.5,0,0.7,0c1.2,0,2.4-0.3,3.4-0.9v10c0,0.8-0.2,1.5-0.6,1.9c-0.4,0.4-0.9,0.6-1.5,0.6
		c-0.6,0-1.1-0.2-1.5-0.6C12.2,23.9,12,23.3,12,22.4"/>
	<path class="st0" d="M12.1,0.6c2.6-0.9,5.5-0.9,7.7,1c0.4,0.3,0.9,0.8,1,1.4C21,3.7,20,3,19.9,2.9c-0.7-0.5-1.4-0.9-2.2-1.1
		c-4.3-1.3-8.4,1.1-11,4.8c-1,1.6-1.7,3.4-2.3,5.3c0,0.2-0.1,0.5-0.2,0.6c-0.1,0.2,0-0.6,0-0.6c0.1-0.8,0.2-1.5,0.4-2.3
		C5.7,5.5,8.3,2.1,12.1,0.6"/>
	<path class="st0" d="M15.4,10.7c-1.5,0.8-3.4,0.1-4.2-1.4S11,5.9,12.6,5.1s3.4-0.1,4.2,1.4C17.6,8,17,9.9,15.4,10.7"/>
</g>
</svg>
