<?xml version="1.0" encoding="utf-8"?>
<!-- Generator: Adobe Illustrator 24.1.1, SVG Export Plug-In . SVG Version: 6.00 Build 0)  -->
<svg version="1.1" id="Layer_1" xmlns="http://www.w3.org/2000/svg" xmlns:xlink="http://www.w3.org/1999/xlink" x="0px" y="0px"
	 viewBox="0 0 5.95 527.03" style="enable-background:new 0 0 5.95 527.03;" xml:space="preserve">
<style type="text/css">
	.st0{clip-path:url(#SVGID_2_);fill:none;stroke:#AE9C79;}
	.st1{clip-path:url(#SVGID_2_);fill:#AE9C79;}
	.st2{clip-path:url(#SVGID_4_);fill:none;stroke:#AE9C79;}
	.st3{clip-path:url(#SVGID_4_);fill:#AE9C79;}
</style>
<g>
	<defs>
		<rect id="SVGID_1_" y="0" width="5.95" height="527.03"/>
	</defs>
	<clipPath id="SVGID_2_">
		<use xlink:href="#SVGID_1_"  style="overflow:visible;"/>
	</clipPath>
	<line class="st0" x1="2.97" y1="2.97" x2="2.97" y2="527.03"/>
	<path class="st1" d="M2.97,89.43c1.64,0,2.97-1.33,2.97-2.97c0-1.64-1.33-2.97-2.97-2.97S0,84.81,0,86.46
		C0,88.1,1.33,89.43,2.97,89.43"/>
	<path class="st1" d="M2.97,5.95c1.64,0,2.97-1.33,2.97-2.97C5.95,1.33,4.62,0,2.97,0S0,1.33,0,2.97C0,4.62,1.33,5.95,2.97,5.95"/>
	<path class="st1" d="M2.97,430.25c1.64,0,2.97-1.33,2.97-2.97c0-1.64-1.33-2.97-2.97-2.97S0,425.63,0,427.27
		C0,428.92,1.33,430.25,2.97,430.25"/>
</g>
<g>
	<defs>
		<rect id="SVGID_3_" y="0" width="5.95" height="527.03"/>
	</defs>
	<clipPath id="SVGID_4_">
		<use xlink:href="#SVGID_3_"  style="overflow:visible;"/>
	</clipPath>
	<line class="st2" x1="2.97" y1="2.97" x2="2.97" y2="527.03"/>
	<path class="st3" d="M2.97,89.43c1.64,0,2.97-1.33,2.97-2.97c0-1.64-1.33-2.97-2.97-2.97S0,84.81,0,86.46
		C0,88.1,1.33,89.43,2.97,89.43"/>
	<path class="st3" d="M2.97,5.95c1.64,0,2.97-1.33,2.97-2.97C5.95,1.33,4.62,0,2.97,0S0,1.33,0,2.97C0,4.62,1.33,5.95,2.97,5.95"/>
	<path class="st3" d="M2.97,430.25c1.64,0,2.97-1.33,2.97-2.97c0-1.64-1.33-2.97-2.97-2.97S0,425.63,0,427.27
		C0,428.92,1.33,430.25,2.97,430.25"/>
</g>
</svg>
