<?xml version="1.0" encoding="utf-8"?>
<!-- Generator: Adobe Illustrator 24.1.1, SVG Export Plug-In . SVG Version: 6.00 Build 0)  -->
<svg version="1.1" id="Layer_1" xmlns:serif="http://www.serif.com/"
	 xmlns="http://www.w3.org/2000/svg" xmlns:xlink="http://www.w3.org/1999/xlink" x="0px" y="0px" viewBox="0 0 25 25"
	 style="enable-background:new 0 0 25 25;" xml:space="preserve">
<style type="text/css">
	.st0{fill-rule:evenodd;clip-rule:evenodd;fill:#FCFCFC;}
</style>
<g id="g5891">
	<path class="st0" d="M25,3.2C25,1.4,23.5,0,21.9,0H3.1C1.4,0,0,1.4,0,3.2v18.7C0,23.6,1.4,25,3.1,25h18.7c1.7,0,3.1-1.4,3.1-3.1
		L25,3.2L25,3.2z M7.2,21.3H3V8.7h4.2V21.3z M5.1,7.1L5.1,7.1c-1.5,0-2.4-1-2.4-2.2c0-1.3,0.9-2.2,2.4-2.2s2.3,1,2.3,2.2
		C7.4,6.1,6.5,7.1,5.1,7.1z M22.3,21.3h-4.2v-6.7c0-1.7-0.6-2.8-2.1-2.8c-1.2,0-1.9,0.8-2.2,1.5c-0.1,0.3-0.2,0.6-0.2,1v7H9.5
		c0,0,0-11.4,0-12.6h4.2v1.8c0.6-0.9,1.6-2.1,3.8-2.1c2.7,0,4.8,1.8,4.8,5.6V21.3z"/>
</g>
</svg>
