<?xml version="1.0" encoding="utf-8"?>
<!-- Generator: Adobe Illustrator 23.1.0, SVG Export Plug-In . SVG Version: 6.00 Build 0)  -->
<svg version="1.1" id="Layer_1" xmlns="http://www.w3.org/2000/svg" xmlns:xlink="http://www.w3.org/1999/xlink" x="0px" y="0px"
	 viewBox="0 0 10 10" style="enable-background:new 0 0 10 10;" xml:space="preserve">
<style type="text/css">
	.st0{clip-path:url(#SVGID_2_);fill:#353E51;}
	.st1{clip-path:url(#SVGID_4_);fill:none;stroke:#FFFFFF;stroke-width:0.283;stroke-miterlimit:10;}
	.st2{clip-path:url(#SVGID_6_);fill:#353E51;}
	.st3{clip-path:url(#SVGID_8_);fill:none;stroke:#FFFFFF;stroke-width:0.283;stroke-miterlimit:10;}
	.st4{clip-path:url(#SVGID_10_);fill:#353E51;}
	.st5{clip-path:url(#SVGID_12_);fill:none;stroke:#FFFFFF;stroke-width:0.283;stroke-miterlimit:10;}
	.st6{clip-path:url(#SVGID_14_);fill:#353E51;}
	.st7{clip-path:url(#SVGID_16_);fill:none;stroke:#FFFFFF;stroke-width:0.283;stroke-miterlimit:10;}
	.st8{clip-path:url(#SVGID_18_);fill:#353E51;}
	.st9{clip-path:url(#SVGID_20_);fill:none;stroke:#FFFFFF;stroke-width:0.283;stroke-miterlimit:10;}
	.st10{fill:#231E21;}
	.st11{clip-path:url(#SVGID_22_);fill:#353E51;}
</style>
<g>
	<g>
		<defs>
			<rect id="SVGID_1_" x="0" y="0.1" width="10" height="9.9"/>
		</defs>
		<clipPath id="SVGID_2_">
			<use xlink:href="#SVGID_1_"  style="overflow:visible;"/>
		</clipPath>
		<path class="st0" d="M6.9,0.7h2.9l-3.8,7c0,0-0.6-1.9-0.9-2.5"/>
	</g>
	<g>
		<defs>
			<rect id="SVGID_3_" x="0" y="0.1" width="10" height="9.9"/>
		</defs>
		<clipPath id="SVGID_4_">
			<use xlink:href="#SVGID_3_"  style="overflow:visible;"/>
		</clipPath>
		<path class="st1" d="M6.9,0.7h2.9l-3.8,7c0,0-0.6-1.9-0.9-2.5"/>
	</g>
	<g>
		<defs>
			<rect id="SVGID_5_" x="0" y="0.1" width="10" height="9.9"/>
		</defs>
		<clipPath id="SVGID_6_">
			<use xlink:href="#SVGID_5_"  style="overflow:visible;"/>
		</clipPath>
		<path class="st2" d="M7.6,9.4h2.2V0.7C9.8,5.2,7.8,9.4,7.6,9.4"/>
	</g>
	<g>
		<defs>
			<rect id="SVGID_7_" x="0" y="0.1" width="10" height="9.9"/>
		</defs>
		<clipPath id="SVGID_8_">
			<use xlink:href="#SVGID_7_"  style="overflow:visible;"/>
		</clipPath>
		<path class="st3" d="M7.6,9.4h2.2V0.7C9.8,5.2,7.8,9.4,7.6,9.4z"/>
	</g>
	<g>
		<defs>
			<rect id="SVGID_9_" x="0" y="0.1" width="10" height="9.9"/>
		</defs>
		<clipPath id="SVGID_10_">
			<use xlink:href="#SVGID_9_"  style="overflow:visible;"/>
		</clipPath>
		<path class="st4" d="M5.9,7.7H4.2l-3.9-7C0.9,0.6,2.3,0.5,3,0.4L5.9,7.7z"/>
	</g>
	<g>
		<defs>
			<rect id="SVGID_11_" x="0" y="0.1" width="10" height="9.9"/>
		</defs>
		<clipPath id="SVGID_12_">
			<use xlink:href="#SVGID_11_"  style="overflow:visible;"/>
		</clipPath>
		<path class="st5" d="M5.9,7.7H4.2l-3.9-7C0.9,0.6,2.3,0.5,3,0.4L5.9,7.7z"/>
	</g>
	<g>
		<defs>
			<rect id="SVGID_13_" x="0" y="0.1" width="10" height="9.9"/>
		</defs>
		<clipPath id="SVGID_14_">
			<use xlink:href="#SVGID_13_"  style="overflow:visible;"/>
		</clipPath>
		<path class="st6" d="M2.5,4.9C1.9,7.3,0.2,9.4,0.2,9.4c2,0,2.4-0.3,2.4-0.4V5.1C2.6,5,2.5,5,2.5,4.9"/>
	</g>
	<g>
		<defs>
			<rect id="SVGID_15_" x="0" y="0.1" width="10" height="9.9"/>
		</defs>
		<clipPath id="SVGID_16_">
			<use xlink:href="#SVGID_15_"  style="overflow:visible;"/>
		</clipPath>
		<path class="st7" d="M2.5,4.9C1.9,7.3,0.2,9.4,0.2,9.4c2,0,2.4-0.3,2.4-0.4V5.1C2.6,5,2.5,5,2.5,4.9z"/>
	</g>
	<g>
		<defs>
			<rect id="SVGID_17_" x="0" y="0.1" width="10" height="9.9"/>
		</defs>
		<clipPath id="SVGID_18_">
			<use xlink:href="#SVGID_17_"  style="overflow:visible;"/>
		</clipPath>
		<path class="st8" d="M0.2,0.7v8.8c1.1-1.8,1.7-2.9,2.3-4.6C1.1,2.5,0.2,0.7,0.2,0.7"/>
	</g>
	<g>
		<defs>
			<rect id="SVGID_19_" x="0" y="0.1" width="10" height="9.9"/>
		</defs>
		<clipPath id="SVGID_20_">
			<use xlink:href="#SVGID_19_"  style="overflow:visible;"/>
		</clipPath>
		<path class="st9" d="M0.2,0.7v8.8c1.1-1.8,1.7-2.9,2.3-4.6C1.1,2.5,0.2,0.7,0.2,0.7z"/>
	</g>
</g>
<polygon class="st10" points="7.5,5 7.5,9 7.6,9.4 7.6,4.8 "/>
<g>
	<g>
		<defs>
			<rect id="SVGID_21_" x="0" y="0.1" width="10" height="9.9"/>
		</defs>
		<clipPath id="SVGID_22_">
			<use xlink:href="#SVGID_21_"  style="overflow:visible;"/>
		</clipPath>
		<path class="st11" d="M7.6,4.8v4.5v0c0.2,0,2.2-4.9,2.2-8.7C9.8,0.7,8.5,3.2,7.6,4.8"/>
	</g>
</g>
</svg>
