<?xml version="1.0" encoding="utf-8"?>
<!-- Generator: Adobe Illustrator 23.1.0, SVG Export Plug-In . SVG Version: 6.00 Build 0)  -->
<svg version="1.1" id="Layer_1" xmlns="http://www.w3.org/2000/svg" xmlns:xlink="http://www.w3.org/1999/xlink" x="0px" y="0px"
	 viewBox="0 0 24 24" style="enable-background:new 0 0 24 24;" xml:space="preserve">
<style type="text/css">
	.st0{clip-path:url(#SVGID_2_);fill:#FFFFFF;}
	.st1{clip-path:url(#SVGID_4_);fill:#AE9C79;}
	.st2{fill:#AE9C79;}
	.st3{clip-path:url(#SVGID_6_);fill:#AE9C79;}
</style>
<g>
	<g>
		<defs>
			<rect id="SVGID_1_" x="3" y="0.8" width="18.1" height="22.4"/>
		</defs>
		<clipPath id="SVGID_2_">
			<use xlink:href="#SVGID_1_"  style="overflow:visible;"/>
		</clipPath>
		<path class="st0" d="M18.7,22.5H5.3c-0.9,0-1.7-0.8-1.7-1.7V3.2c0-1,0.8-1.7,1.7-1.7h13.3c1,0,1.7,0.8,1.7,1.7v17.6
			C20.4,21.8,19.6,22.5,18.7,22.5"/>
	</g>
	<g>
		<defs>
			<rect id="SVGID_3_" x="3" y="0.8" width="18.1" height="22.4"/>
		</defs>
		<clipPath id="SVGID_4_">
			<use xlink:href="#SVGID_3_"  style="overflow:visible;"/>
		</clipPath>
		<path class="st1" d="M5.3,2.1c-0.6,0-1.1,0.5-1.1,1.1v17.6c0,0.6,0.5,1.1,1.1,1.1h13.3c0.6,0,1.1-0.5,1.1-1.1V3.2
			c0-0.6-0.5-1.1-1.1-1.1L5.3,2.1L5.3,2.1z M18.7,23.2H5.3C4,23.2,3,22.1,3,20.8V3.2C3,1.9,4,0.8,5.3,0.8h13.3C20,0.8,21,1.9,21,3.2
			v17.6C21,22.1,20,23.2,18.7,23.2"/>
	</g>
</g>
<rect x="3.6" y="6.6" class="st2" width="16.8" height="1.3"/>
<rect x="3.6" y="15.8" class="st2" width="16.8" height="1.3"/>
<g>
	<g>
		<defs>
			<rect id="SVGID_5_" x="3" y="0.8" width="18.1" height="22.4"/>
		</defs>
		<clipPath id="SVGID_6_">
			<use xlink:href="#SVGID_5_"  style="overflow:visible;"/>
		</clipPath>
		<path class="st3" d="M14,5.1h-4c-0.4,0-0.7-0.3-0.7-0.7c0-0.4,0.3-0.7,0.7-0.7h4c0.4,0,0.7,0.3,0.7,0.7C14.7,4.8,14.4,5.1,14,5.1"
			/>
	</g>
</g>
</svg>
