<?xml version="1.0" encoding="utf-8"?>
<!-- Generator: Adobe Illustrator 23.1.0, SVG Export Plug-In . SVG Version: 6.00 Build 0)  -->
<svg version="1.1" id="Layer_1" xmlns="http://www.w3.org/2000/svg" xmlns:xlink="http://www.w3.org/1999/xlink" x="0px" y="0px"
	 viewBox="0 0 10 10" style="enable-background:new 0 0 10 10;" xml:space="preserve">
<style type="text/css">
	.st0{clip-path:url(#SVGID_2_);fill:#353E51;}
</style>
<g>
	<g>
		<defs>
			<rect id="SVGID_1_" y="1.1" width="10" height="7.9"/>
		</defs>
		<clipPath id="SVGID_2_">
			<use xlink:href="#SVGID_1_"  style="overflow:visible;"/>
		</clipPath>
		<path class="st0" d="M2.2,4.1c0-0.2-0.2-0.4-0.4-0.4S1.3,3.8,1.3,4.1s0.2,0.4,0.4,0.4C2,4.5,2.2,4.3,2.2,4.1 M6.6,5.7
			c0,0.8-0.7,1.5-1.6,1.5S3.4,6.5,3.4,5.7c0-0.8,0.7-1.5,1.6-1.5S6.6,4.8,6.6,5.7 M7.2,5.7c0-1.2-1-2.1-2.2-2.1S2.8,4.5,2.8,5.7
			s1,2.1,2.2,2.1S7.2,6.8,7.2,5.7 M9.4,7.9c0,0.2-0.2,0.5-0.5,0.5H1.1c-0.3,0-0.5-0.2-0.5-0.5V3.4C0.6,3.2,0.8,3,1.1,3h7.9
			c0.3,0,0.5,0.2,0.5,0.5V7.9z M3.3,2.4V2.1c0-0.2,0.2-0.5,0.5-0.5h2.5c0.3,0,0.5,0.2,0.5,0.5v0.3H3.3 M10,7.9V3.4
			c0-0.6-0.5-1-1.1-1H7.3V2.1c0-0.6-0.5-1-1.1-1H3.8c-0.6,0-1.1,0.5-1.1,1v0.3H1.1C0.5,2.4,0,2.8,0,3.4v4.5c0,0.6,0.5,1,1.1,1h7.9
			C9.5,8.9,10,8.5,10,7.9"/>
	</g>
</g>
</svg>
